<svg xmlns="http://www.w3.org/2000/svg" xmlns:xlink="http://www.w3.org/1999/xlink" width="74.583" height="52.504" viewBox="0 0 74.583 52.504">
  <defs>
    <clipPath id="clip-path">
      <rect id="Rectángulo_18" data-name="Rectángulo 18" width="74.583" height="52.504" transform="translate(0 0)" fill="#fff"/>
    </clipPath>
  </defs>
  <g id="Grupo_18" data-name="Grupo 18" transform="translate(0 0)">
    <g id="Grupo_17" data-name="Grupo 17" clip-path="url(#clip-path)">
      <path id="Trazado_42" data-name="Trazado 42" d="M52.63,19.969,74.173,7.527a.283.283,0,0,1,.378.126.188.188,0,0,1,.032.126V52.221a.282.282,0,0,1-.284.283c-.064,0-.1-.032-.158-.064L52.63,40.032V46.3a1.938,1.938,0,0,1-1.922,1.922H1.921a1.953,1.953,0,0,1-1.354-.568A1.9,1.9,0,0,1,0,46.3V13.7a2.038,2.038,0,0,1,.567-1.387,1.907,1.907,0,0,1,1.26-.534,10.867,10.867,0,0,0,18.361,3.559,10.859,10.859,0,0,0,18.363-3.591H50.708a1.91,1.91,0,0,1,1.355.566A2.042,2.042,0,0,1,52.63,13.7ZM12.062,0a8.143,8.143,0,0,1,8.126,7.5,8.174,8.174,0,1,1,0,1.291A8.154,8.154,0,1,1,12.062,0M7.685,25.291H34.866a2.427,2.427,0,0,1,2.425,2.425v4.567a2.426,2.426,0,0,1-2.425,2.425H7.685A2.446,2.446,0,0,1,5.26,32.283V27.716a2.447,2.447,0,0,1,2.425-2.425" fill="#fff" fill-rule="evenodd"/>
    </g>
  </g>
</svg>
