<svg xmlns="http://www.w3.org/2000/svg" xmlns:xlink="http://www.w3.org/1999/xlink" width="61.791" height="60.163" viewBox="0 0 61.791 60.163">
  <defs>
    <clipPath id="clip-path">
      <rect id="Rectángulo_16" data-name="Rectángulo 16" width="61.791" height="60.163" fill="#fff"/>
    </clipPath>
  </defs>
  <g id="Grupo_14" data-name="Grupo 14" transform="translate(0 0)">
    <g id="Grupo_13" data-name="Grupo 13" transform="translate(0 0)" clip-path="url(#clip-path)">
      <path id="Trazado_40" data-name="Trazado 40" d="M5.556,23.735H58.972a2.823,2.823,0,0,1,2.819,2.819v6.419H2.739V26.554a2.823,2.823,0,0,1,2.817-2.819M1.539,14.5,55.4.068a2.076,2.076,0,0,1,2.53,1.461l1.2,4.488a2.078,2.078,0,0,1-1.461,2.532L3.809,22.979a2.058,2.058,0,0,1-2.532-1.461l-1.2-4.488A2.068,2.068,0,0,1,1.539,14.5m5.74.391,2.062-.548c.391-.1.757-.026.809.157l1.123,4.175c.051.209-.235.444-.626.548l-2.061.573c-.392.1-.757.027-.809-.182L6.653,15.438c-.053-.183.209-.444.626-.548M48.535,3.825l2.088-.548c.391-.1.756-.026.808.157l1.123,4.175c.051.209-.235.443-.626.574l-2.061.548c-.392.1-.757.027-.809-.182L47.935,4.374c-.052-.183.208-.444.6-.548M40.288,6.043,42.35,5.5c.418-.1.784-.052.835.156l1.1,4.176c.052.209-.209.444-.6.548l-2.089.574c-.39.1-.756.026-.808-.183L39.662,6.591c-.052-.208.235-.443.626-.548M32.043,8.261,34.1,7.687c.391-.1.756-.026.809.183l1.121,4.175c.053.209-.234.443-.626.548l-2.061.548c-.39.1-.756.052-.809-.157L31.417,8.809c-.052-.209.234-.444.626-.548m-8.272,2.192,2.087-.548c.392-.1.756-.027.809.182l1.121,4.176c.053.182-.234.443-.626.548l-2.062.548c-.418.1-.782.027-.834-.157l-1.1-4.175c-.051-.209.21-.444.6-.574m-8.247,2.218,2.062-.548c.391-.1.757-.027.809.157l1.123,4.2c.051.183-.209.444-.6.548l-2.087.548c-.392.1-.757.026-.809-.157L14.9,13.22c-.052-.183.234-.444.626-.548M61.791,35.243v22.1a2.823,2.823,0,0,1-2.819,2.819H5.556a2.823,2.823,0,0,1-2.817-2.819v-22.1ZM9.836,25.8h2.14c.391,0,.731.157.731.365v4.332c0,.209-.34.365-.731.365H9.836c-.418,0-.756-.157-.756-.365V26.162c0-.208.339-.365.756-.365m42.718,0h2.139c.418,0,.757.157.757.365v4.332c0,.209-.34.365-.757.365H52.554c-.392,0-.731-.157-.731-.365V26.162c0-.208.339-.365.731-.365m-8.534,0h2.14c.418,0,.731.157.731.365v4.332c0,.209-.313.365-.731.365H44.02c-.418,0-.756-.157-.756-.365V26.162c0-.208.339-.365.756-.365m-8.559,0H37.6c.418,0,.756.157.756.365v4.332c0,.209-.338.365-.756.365h-2.14c-.391,0-.731-.157-.731-.365V26.162c0-.208.34-.365.731-.365m-8.533,0h2.14c.392,0,.731.157.731.365v4.332c0,.209-.339.365-.731.365h-2.14c-.418,0-.756-.157-.756-.365V26.162c0-.208.339-.365.756-.365m-8.558,0h2.139c.418,0,.757.157.757.365v4.332c0,.209-.34.365-.757.365H18.37c-.418,0-.731-.157-.731-.365V26.162c0-.208.312-.365.731-.365" transform="translate(0 0)" fill="#fff" fill-rule="evenodd"/>
    </g>
  </g>
</svg>
