<svg xmlns="http://www.w3.org/2000/svg" viewBox="0 0 400.04 400.04"><defs><style>.cls-1{fill:#cd1626;}.cls-2{fill:#fff;}</style></defs><g id="Capa_2" data-name="Capa 2"><g id="Capa_1-2" data-name="Capa 1"><circle class="cls-1" cx="200.02" cy="200.02" r="200.02"/><path class="cls-2" d="M130.6,138.42c1.07,0,2.15,0,3.21-.13a1.51,1.51,0,0,0,1.4-1.51V121.7a1.51,1.51,0,0,0-1.69-1.49,22.63,22.63,0,0,1-2.34.12,21.46,21.46,0,0,1-21.07-17.44,21.85,21.85,0,0,1-.33-5.33,21.44,21.44,0,0,1,42.83,1.13v.42q0,16.45,0,32.92V140q0,12.22,0,24.44H171.7q0-33.35,0-66.68c0-.14,0-.28,0-.41s0-.3,0-.44a41.11,41.11,0,1,0-41.09,41.55Z"/><path class="cls-2" d="M334.16,214.72,274,249.4a6.2,6.2,0,0,0,0,10.75l60.13,34.79a6.2,6.2,0,0,0,9.31-5.37l.06-69.47A6.2,6.2,0,0,0,334.16,214.72ZM328.24,274,295,254.79l33.26-19.16Z"/><path class="cls-2" d="M252.9,128.06v-1.4a30.79,30.79,0,0,0-11-24.07,31.12,31.12,0,0,0-21.47-7.7h-1a33.54,33.54,0,1,0,0,67.08c.73,0,1.47,0,2.19-.09V143.71a13.68,13.68,0,0,1-1.82.12,15.17,15.17,0,0,1,0-30.33,15,15,0,0,1,9.4,3.28c.13.09.25.19.37.29s.24.2.35.31a3.4,3.4,0,0,1,.34.32,12.32,12.32,0,0,1,3.61,9.3c0,2.43,0,4.87,0,7.31q0,19.66,0,39.32v2.11h-126a8.68,8.68,0,0,0-8.68,8.68V296.47a8.68,8.68,0,0,0,8.68,8.69H244.23a8.69,8.69,0,0,0,8.68-8.69V214.86a8.68,8.68,0,0,0-8.68-8.68H140.34a8.67,8.67,0,0,0-8.68,8.68v45.71a8.68,8.68,0,0,0,8.68,8.69H222.4v-19.1H150.75V225.27h83.07v60.8H118.25V194.84h126a8.68,8.68,0,0,0,8.68-8.68v-35Q252.91,139.64,252.9,128.06Z"/></g></g></svg>