<svg xmlns="http://www.w3.org/2000/svg" xmlns:xlink="http://www.w3.org/1999/xlink" width="249.888" height="70" viewBox="0 0 249.888 70">
  <defs>
    <clipPath id="clip-path">
      <rect id="Rectángulo_32" data-name="Rectángulo 32" width="165.888" height="70" fill="none"/>
    </clipPath>
  </defs>
  <g id="Grupo_32" data-name="Grupo 32" transform="translate(-140 -85)">
    <g id="Grupo_31" data-name="Grupo 31">
      <path id="Trazado_46" data-name="Trazado 46" d="M70,35A35,35,0,1,1,35,0,35,35,0,0,1,70,35" transform="translate(140 85)" fill="#dd1a1e"/>
      <g id="Grupo_30" data-name="Grupo 30">
        <path id="Trazado_47" data-name="Trazado 47" d="M95.508,68.251q.237,0,.471-.018a.222.222,0,0,0,.206-.221V65.8a.221.221,0,0,0-.247-.219,3.168,3.168,0,0,1-.344.018,3.142,3.142,0,1,1,3.14-3.172.409.409,0,0,1,0,.062q0,2.412,0,4.824v1.163q0,1.791,0,3.582h2.8q0-4.887,0-9.774c0-.02,0-.041,0-.061s0-.043,0-.064a6.025,6.025,0,1,0-6.024,6.09" transform="translate(66.905 43.555)" fill="#fff"/>
        <path id="Trazado_48" data-name="Trazado 48" d="M280.14,214.005l-8.823,5.083a.909.909,0,0,0,0,1.575l8.814,5.1a.909.909,0,0,0,1.364-.786l.009-10.183a.909.909,0,0,0-1.363-.789m-.868,8.692-4.871-2.818,4.876-2.809Z" transform="translate(-87.89 -91.016)" fill="#fff"/>
        <path id="Trazado_49" data-name="Trazado 49" d="M121.692,99.74v-.205a4.508,4.508,0,0,0-1.618-3.527,4.559,4.559,0,0,0-3.147-1.129h-.006l-.144,0a4.916,4.916,0,0,0,0,9.832c.108,0,.215,0,.321-.012v-2.661a2.136,2.136,0,0,1-.267.017,2.223,2.223,0,1,1,1.379-3.964.671.671,0,0,1,.054.043.619.619,0,0,1,.052.045.474.474,0,0,1,.049.046,1.8,1.8,0,0,1,.53,1.363c0,.357,0,.715,0,1.072q0,2.882,0,5.764v.31H100.43A1.271,1.271,0,0,0,99.158,108v16.424a1.272,1.272,0,0,0,1.272,1.273h19.991a1.273,1.273,0,0,0,1.273-1.273V112.462a1.272,1.272,0,0,0-1.273-1.272H105.194a1.271,1.271,0,0,0-1.272,1.272v6.7a1.272,1.272,0,0,0,1.272,1.273h12.028v-2.8h-10.5v-3.648H118.9V122.9H101.957V109.528h18.464a1.274,1.274,0,0,0,1.273-1.272v-2.683q0-1.221,0-2.441,0-1.7,0-3.392" transform="translate(58.647 10.547)" fill="#fff"/>
      </g>
    </g>
    <g id="Grupo_29" data-name="Grupo 29" transform="translate(224 85)">
      <g id="Grupo_28" data-name="Grupo 28" clip-path="url(#clip-path)">
        <path id="Trazado_50" data-name="Trazado 50" d="M16.426,66.7c-.13-2.619-.268-5.519-.2-7.773h-.12c-.427,2.214-.957,4.584-1.571,6.9l-2.443,9.293H10.65L8.328,66.2c-.656-2.525-1.239-4.977-1.628-7.273H6.6c.014,2.337-.113,5.113-.242,7.938l-.365,8.382H3.949L5.13,55.405H7.594l2.315,9.076c.666,2.617,1.166,4.563,1.593,6.821h.08c.388-2.261.83-4.151,1.465-6.821L15.3,55.405h2.537l1.133,19.843H16.853Zm7.81,2.593-1.315,5.953H20.728l4.54-19.843h2.508l4.4,19.843H29.946L28.64,69.294Zm4.091-1.816-1.036-5.044c-.291-1.407-.556-3.042-.794-4.525h-.1c-.226,1.5-.521,3.2-.8,4.545l-1.042,5.024ZM34.682,55.7a12.269,12.269,0,0,1,3.264-.382A6.065,6.065,0,0,1,42.4,56.736a5.821,5.821,0,0,1-1.787,8.982v.059c1.46.445,2.231,1.849,2.667,4.451a27.673,27.673,0,0,0,1.14,5.02H42.1a27.885,27.885,0,0,1-1.054-4.907c-.439-2.726-1.3-3.738-3.225-3.738h-.895v8.646H34.682Zm2.249,9.15h.96c2.151,0,3.607-1.6,3.607-3.965,0-2.286-.93-3.726-3.372-3.743a4.64,4.64,0,0,0-1.2.117Zm9.793-9.444h2.249V64.84h.068c.45-.833.838-1.634,1.224-2.4l3.7-7.032h2.515l-4.866,8.467,5,11.376H54.149L50.1,65.688,48.973,67.58v7.667H46.724ZM65.843,65.819H60.877v7.46h5.66v1.969H58.62V55.405h7.553v1.969h-5.3V63.9h4.966Zm5.507-8.378H67.72V55.405h9.527v2.037H73.608V75.248H71.35Z" transform="translate(-0.9 -12.609)" fill="#dd1a1e"/>
        <path id="Trazado_51" data-name="Trazado 51" d="M3.46,32.137a14.7,14.7,0,0,0,7.016,1.849c3.383,0,5.277-1.59,5.277-3.963,0-2.192-1.47-3.484-5.143-4.817-4.8-1.7-7.859-4.273-7.859-8.434,0-4.755,3.976-8.334,10.274-8.334a15.436,15.436,0,0,1,6.959,1.434l-1.269,4.279a12.562,12.562,0,0,0-5.8-1.379c-3.366,0-4.795,1.791-4.795,3.5,0,2.227,1.679,3.274,5.553,4.752,5.043,1.926,7.467,4.456,7.467,8.629,0,4.669-3.517,8.72-11.007,8.72a16.878,16.878,0,0,1-7.847-1.844Zm34.324,5.782-.363-2.335h-.127a7.664,7.664,0,0,1-6.179,2.81A6.213,6.213,0,0,1,24.5,32.156c0-5.291,4.714-7.97,12.437-7.938v-.347c0-1.378-.545-3.67-4.257-3.656a11.186,11.186,0,0,0-5.638,1.564L26,18.339a15.161,15.161,0,0,1,7.6-1.861c6.725,0,8.645,4.24,8.645,8.84v7.55a31.463,31.463,0,0,0,.326,5.051Zm-.7-10.269c-3.741-.049-7.319.74-7.319,3.932a2.8,2.8,0,0,0,3.022,3.02,4.315,4.315,0,0,0,4.149-2.9,4,4,0,0,0,.148-1.153Zm10.784-4.463c0-2.422-.076-4.419-.172-6.235h4.633l.261,3.148h.123a7.635,7.635,0,0,1,6.682-3.622c3.656,0,7.454,2.354,7.454,8.987V37.919H61.541V26.089c0-3.009-1.1-5.3-4-5.3A4.4,4.4,0,0,0,53.416,23.9a5.2,5.2,0,0,0-.243,1.682V37.919H47.866Zm30.485-12.24v6.005H83.4V20.9H78.351v9.253c0,2.566.683,3.87,2.711,3.87a7.988,7.988,0,0,0,2.059-.232l.107,4.034a11.887,11.887,0,0,1-3.859.544,6.136,6.136,0,0,1-4.557-1.728c-1.139-1.2-1.658-3.134-1.658-5.881V20.9H70.164v-3.95h2.992V12.2Zm14.666.137A2.814,2.814,0,0,1,90,13.943a2.783,2.783,0,0,1-2.9-2.86,2.965,2.965,0,0,1,5.926,0ZM87.4,37.919V16.951h5.306V37.919Zm22.819,0-.363-2.335h-.127a7.664,7.664,0,0,1-6.18,2.81,6.212,6.212,0,0,1-6.61-6.237c0-5.291,4.714-7.97,12.437-7.938v-.347c0-1.378-.545-3.67-4.257-3.656a11.183,11.183,0,0,0-5.638,1.564l-1.051-3.44a15.167,15.167,0,0,1,7.6-1.861c6.725,0,8.644,4.24,8.644,8.84v7.55A31.451,31.451,0,0,0,115,37.919Zm-.7-10.269c-3.741-.049-7.32.74-7.32,3.932a2.8,2.8,0,0,0,3.023,3.02,4.315,4.315,0,0,0,4.149-2.9,4,4,0,0,0,.148-1.153Zm29.944-10.7c-.1,1.411-.178,3.152-.178,6.021v11.9c0,4.4-.892,7.521-3.1,9.5-2.19,1.946-5.226,2.549-8.114,2.549a15.147,15.147,0,0,1-7.3-1.661l1.143-4.043a12.393,12.393,0,0,0,6.118,1.619c3.444,0,6.026-1.821,6.026-6.337v-1.79h-.086a7.054,7.054,0,0,1-6.109,3.076c-5.2,0-8.9-4.313-8.9-10.229,0-6.918,4.476-11.078,9.486-11.078a6.6,6.6,0,0,1,6.1,3.264h.086l.191-2.79Zm-5.479,8.412a5.373,5.373,0,0,0-.166-1.428,4.413,4.413,0,0,0-4.333-3.409c-2.938,0-5.15,2.573-5.15,6.854,0,3.561,1.8,6.454,5.127,6.454a4.47,4.47,0,0,0,4.285-3.213,6.787,6.787,0,0,0,.237-1.861ZM164.9,27.229c0,7.708-5.409,11.164-10.772,11.164-5.915,0-10.492-4.083-10.492-10.8,0-6.878,4.53-11.113,10.849-11.113C160.724,16.478,164.9,20.873,164.9,27.229Zm-15.814.228c0,4.035,2.014,7.084,5.213,7.084,3.04,0,5.151-2.935,5.151-7.154,0-3.3-1.458-7.057-5.117-7.057C150.612,20.33,149.086,23.962,149.086,27.457Z" transform="translate(-0.521 -1.873)" fill="#dd1a1e"/>
      </g>
    </g>
  </g>
</svg>
