<svg xmlns="http://www.w3.org/2000/svg" xmlns:xlink="http://www.w3.org/1999/xlink" width="74.582" height="59.38" viewBox="0 0 74.582 59.38">
  <defs>
    <clipPath id="clip-path">
      <rect id="Rectángulo_19" data-name="Rectángulo 19" width="74.582" height="59.38" transform="translate(0 0)" fill="#fff"/>
    </clipPath>
  </defs>
  <g id="Grupo_20" data-name="Grupo 20" transform="translate(0 0)">
    <g id="Grupo_19" data-name="Grupo 19" clip-path="url(#clip-path)">
      <path id="Trazado_43" data-name="Trazado 43" d="M2.645.073c12.662,4.127,25.26,3.465,37.922,0,1.385-.377,2.645,1.2,2.645,2.645V37.774A21.606,21.606,0,0,1,0,37.774V2.718C0,1.27,1.26-.368,2.645.073M46.583,2.656A71.133,71.133,0,0,0,71.936.073c1.417-.377,2.647,1.2,2.647,2.645V37.774a21.573,21.573,0,0,1-34.8,17.071,24.659,24.659,0,0,0,5.764-9.953c8.5,3.811,21.858.441,21.858-10.047H46.583V2.656ZM65.007,14.94a4.6,4.6,0,1,1-4.6,4.6,4.623,4.623,0,0,1,4.6-4.6m-55.4,0a4.6,4.6,0,1,1-4.6,4.6,4.623,4.623,0,0,1,4.6-4.6M7.212,34.845H36c0,15.433-28.787,15.433-28.787,0M33.606,14.94a4.6,4.6,0,1,1-4.6,4.6,4.6,4.6,0,0,1,4.6-4.6" fill="#fff" fill-rule="evenodd"/>
    </g>
  </g>
</svg>
