<svg xmlns="http://www.w3.org/2000/svg" xmlns:xlink="http://www.w3.org/1999/xlink" width="74.584" height="56.945" viewBox="0 0 74.584 56.945">
  <defs>
    <clipPath id="clip-path">
      <rect id="Rectángulo_17" data-name="Rectángulo 17" width="74.584" height="56.945" transform="translate(0 0)" fill="#fff"/>
    </clipPath>
  </defs>
  <g id="Grupo_16" data-name="Grupo 16" transform="translate(0 0)">
    <g id="Grupo_15" data-name="Grupo 15" clip-path="url(#clip-path)">
      <path id="Trazado_41" data-name="Trazado 41" d="M27.685,0A27.67,27.67,0,1,1,0,27.654,27.649,27.649,0,0,1,27.685,0M27.5,19.937a7.705,7.705,0,0,1,5.543,2.331,7.835,7.835,0,0,1,0,11.087,7.708,7.708,0,0,1-5.543,2.33,7.874,7.874,0,0,1,0-15.748m4.693,3.181a6.615,6.615,0,0,0-9.386,0,6.517,6.517,0,0,0-1.953,4.693A6.621,6.621,0,0,0,22.772,32.5,6.719,6.719,0,0,0,27.5,34.456,6.637,6.637,0,0,0,32.19,23.118m14.3,28.032H73.418a1.191,1.191,0,0,1,1.166,1.2V55.78a1.184,1.184,0,0,1-1.166,1.165h-38.8A30.118,30.118,0,0,0,46.489,51.15m-18.8-26.425a2.945,2.945,0,1,1-2.961,2.929,2.943,2.943,0,0,1,2.961-2.929M11.874,36.788a3.922,3.922,0,1,1,5.355,1.417,3.915,3.915,0,0,1-5.355-1.417m0-18.237a3.922,3.922,0,1,1,1.45,5.355,3.959,3.959,0,0,1-1.45-5.355m15.811-9.1a3.906,3.906,0,1,1-3.937,3.906,3.9,3.9,0,0,1,3.937-3.906m15.779,9.1a3.93,3.93,0,0,1-1.448,5.355,3.923,3.923,0,0,1-3.9-6.8,3.942,3.942,0,0,1,5.353,1.449m0,18.237a3.908,3.908,0,1,1-1.448-5.355,3.9,3.9,0,0,1,1.448,5.355m-15.779,9.1a3.906,3.906,0,1,1,3.905-3.906,3.912,3.912,0,0,1-3.905,3.906" fill="#fff" fill-rule="evenodd"/>
    </g>
  </g>
</svg>
